#!OML:ASF I:\golf\golf\golf 2\Subject 1\2002-09-07\Subject1.ASF
:FULLY-SPECIFIED
:DEGREES
117
root -2.20502 17.9974 -7.5838 9.65492 15.465 -5.45519
lowerback 3.31778 2.16602 -2.87477
upperback 4.45677 2.8037 3.64003
thorax 2.42082 1.27137 5.34585
lowerneck -16.0868 0.547195 0.164973
upperneck 39.7259 5.318 -9.6063
head 17.7934 0.988375 -3.40683
rclavicle 4.57205e-015 -2.8625e-014
rhumerus -18.5989 -8.3202 -79.1452
rradius 26.3952
rwrist -10.5963
rhand -28.2896 15.2235
rfingers 7.12502
rthumb -1.66561 -14.7498
lclavicle 4.57205e-015 -2.8625e-014
lhumerus -25.058 3.65264 82.1267
lradius 33.6825
lwrist 9.06652
lhand -11.3023 33.7834
lfingers 7.12502
lthumb 14.7293 63.2401
rfemur -30.5067 -3.55033 21.0053
rtibia 49.7023
rfoot -11.0299 -10.3888
rtoes 7.3761
lfemur -17.3367 2.3774 -16.3793
ltibia 27.9666
lfoot -18.0666 -3.68795
ltoes -4.26553
118
root -2.19401 18.0005 -7.57352 9.79969 15.8157 -5.46058
lowerback 3.50647 2.17858 -2.84504
upperback 4.55754 2.81762 3.64922
thorax 2.4192 1.27761 5.33344
lowerneck -16.0786 0.445063 0.144415
upperneck 39.6303 5.1291 -9.54221
head 17.7129 0.920172 -3.40117
rclavicle 2.65378e-014 -3.1408e-014
rhumerus -18.3028 -8.02389 -79.2361
rradius 26.7584
rwrist -10.8628
rhand -28.372 15.0168
rfingers 7.12502
rthumb -1.7452 -14.9558
lclavicle 2.65378e-014 -3.1408e-014
lhumerus -25.0247 3.55009 82.0493
lradius 33.7756
lwrist 8.98449
lhand -11.2588 33.8705
lfingers 7.12502
lthumb 14.7712 63.3242
rfemur -31.0854 -3.59002 21.0721
rtibia 49.5431
rfoot -10.9304 -10.5796
rtoes 6.36773
lfemur -17.4874 2.21721 -16.3781
ltibia 27.9157
lfoot -17.9723 -3.83217
ltoes -4.17445
119
root -2.18243 18.0039 -7.56527 9.96156 16.1737 -5.46209
lowerback 3.68708 2.18762 -3.0317
upperback 4.69331 2.82143 3.84451
thorax 2.44273 1.26872 5.64151
lowerneck -16.1009 0.331485 -0.055781
upperneck 39.4473 5.01481 -9.56582
head 17.6014 0.844029 -3.38391
rclavicle -6.16232e-014 9.93923e-015
rhumerus -17.8377 -7.48411 -79.0823
rradius 27.0188
rwrist -11.2355
rhand -28.4413 14.8986
rfingers 7.12502
rthumb -1.8121 -15.0735
lclavicle -6.16232e-014 9.93923e-015
lhumerus -24.8636 3.66933 82.2346
lradius 33.7877
lwrist 8.99631
lhand -11.3652 34.0141
lfingers 7.12502
lthumb 14.6687 63.4752
rfemur -31.677 -3.68306 21.1234
rtibia 49.2827
rfoot -10.9148 -10.6671
rtoes 6.60384
lfemur -17.6778 2.09422 -16.3854
ltibia 27.8821
lfoot -17.978 -4.00509
ltoes -4.28154
120
root -2.17307 18.0098 -7.55473 10.1072 16.4922 -5.51684
lowerback 3.93441 2.17388 -2.80891
upperback 4.78415 2.80373 3.76703
thorax 2.41348 1.2668 5.42614
lowerneck -16.101 0.28454 -0.0396856
upperneck 39.2909 4.86121 -9.43536
head 17.4899 0.803472 -3.34346
rclavicle 4.23411e-014 -3.45885e-014
rhumerus -17.4746 -7.19022 -79.3444
rradius 27.2859
rwrist -11.4873
rhand -28.4916 14.9564
rfingers 7.12502
rthumb -1.86067 -15.0152
lclavicle 4.23411e-014 -3.45885e-014
lhumerus -24.619 3.62158 82.0152
lradius 33.6433
lwrist 8.88574
lhand -11.4398 34.0271
lfingers 7.12502
lthumb 14.5968 63.4934
rfemur -32.2297 -3.74489 21.2414
rtibia 48.9247
rfoot -10.9048 -10.6903
rtoes 6.39356
lfemur -17.8776 2.03062 -16.3147
ltibia 27.864
lfoot -18.04 -4.23607
ltoes -4.29826
121
root -2.16633 18.0151 -7.54341 10.2382 16.8415 -5.59355
lowerback 4.1766 2.17634 -2.65201
upperback 4.87584 2.8069 3.74466
thorax 2.38057 1.27285 5.30609
lowerneck -16.1216 0.219435 0.0184479
upperneck 39.2335 4.70452 -9.36291
head 17.4447 0.759478 -3.34554
rclavicle -1.98785e-016 -3.53837e-014
rhumerus -17.1688 -6.9029 -79.5253
rradius 27.5728
rwrist -11.9825
rhand -28.5257 15.4238
rfingers 7.12502
rthumb -1.89366 -14.5475
lclavicle -1.98785e-016 -3.53837e-014
lhumerus -24.4382 3.52179 81.8378
lradius 33.5209
lwrist 8.80124
lhand -11.286 33.8021
lfingers 7.12502
lthumb 14.7449 63.2577
rfemur -32.7433 -3.78311 21.4022
rtibia 48.4738
rfoot -10.801 -10.7672
rtoes 5.3923
lfemur -18.057 1.95356 -16.2029
ltibia 27.8369
lfoot -17.9895 -4.53099
ltoes -3.76727
122
root -2.15963 18.0167 -7.53245 10.388 17.2178 -5.5744
lowerback 4.40337 2.20186 -2.68738
upperback 5.01663 2.83642 3.78417
thorax 2.39406 1.28372 5.36175
lowerneck -16.2353 0.124611 0.0486607
upperneck 39.2259 4.53398 -9.3177
head 17.4525 0.70001 -3.36228
rclavicle -6.95746e-015 -8.74653e-015
rhumerus -16.8275 -6.62626 -79.5786
rradius 27.8475
rwrist -12.7099
rhand -28.5782 16.2779
rfingers 7.12502
rthumb -1.94439 -13.693
lclavicle -6.95746e-015 -8.74653e-015
lhumerus -24.2511 3.37283 81.7955
lradius 33.4777
lwrist 8.96562
lhand -11.1557 33.5935
lfingers 7.12502
lthumb 14.8705 63.0399
rfemur -33.2389 -3.84847 21.4483
rtibia 47.9413
rfoot -10.6722 -10.8112
rtoes 5.08302
lfemur -18.222 1.79239 -16.1991
ltibia 27.8045
lfoot -17.8763 -4.83091
ltoes -2.67339
